<svg width="276" height="370" viewBox="0 0 276 370" fill="none" xmlns="http://www.w3.org/2000/svg">
<path d="M146.781 90.4813C148.753 86.0421 155.258 86.7378 156.246 91.4937L174.621 179.917C174.916 181.337 175.814 182.56 177.081 183.266L249.805 223.822C253.655 225.969 253.044 231.687 248.826 232.972L169.17 257.229C167.782 257.651 166.646 258.656 166.057 259.982L129.396 342.519C127.424 346.958 120.92 346.262 119.931 341.506L101.557 253.083C101.261 251.662 100.364 250.44 99.0964 249.733L26.373 209.178C22.5222 207.031 23.1339 201.312 27.3517 200.028L107.008 175.771C108.396 175.349 109.531 174.344 110.12 173.018L146.781 90.4813Z" fill="#581DA6"/>
<path d="M139.727 94.435C141.738 90.1088 148.088 90.788 149.138 95.4417L167.352 176.133C167.673 177.554 168.597 178.764 169.883 179.448L239.582 216.488C243.562 218.603 242.932 224.49 238.595 225.715L162.638 247.177C161.237 247.573 160.078 248.56 159.464 249.881L124.596 324.895C122.585 329.221 116.235 328.542 115.184 323.888L96.971 243.196C96.6503 241.776 95.7262 240.566 94.4401 239.882L24.7407 202.841C20.7611 200.726 21.3908 194.84 25.7276 193.614L101.684 172.153C103.086 171.757 104.245 170.77 104.859 169.449L139.727 94.435Z" fill="#7E21F8"/>
<circle cx="149.108" cy="116.5" r="6.5" fill="#1E0B37"/>
<path d="M148.608 114.004L148.608 -7.00005" stroke="url(#paint0_linear_1077_7)" stroke-width="3" stroke-linecap="round"/>
<defs>
<linearGradient id="paint0_linear_1077_7" x1="149.108" y1="-7.00005" x2="149.108" y2="114.004" gradientUnits="userSpaceOnUse">
<stop offset="0.167854" stop-color="#1F0B37"/>
<stop offset="1" stop-color="white"/>
</linearGradient>
</defs>
</svg>
