<svg width="386" height="338" viewBox="0 0 386 338" fill="none" xmlns="http://www.w3.org/2000/svg">
<path d="M182.332 102.078C187.035 100.017 192.35 99.8433 197.177 101.593L337.46 152.443C354.518 158.626 355.191 182.501 338.509 189.635L210.499 244.379C206.073 246.272 201.111 246.505 196.527 245.034L50.3297 198.143C32.7884 192.517 31.537 168.176 48.4088 160.781L182.332 102.078Z" fill="#C1229F"/>
<path d="M183.11 100.423C187.921 98.2515 193.395 98.0698 198.339 99.9175L335.627 151.223C352.878 157.67 352.985 182.033 335.791 188.63L215.053 234.958C211.043 236.496 206.645 236.703 202.509 235.548L58.65 195.376C40.6482 190.349 38.7657 165.573 55.8014 157.884L183.11 100.423Z" fill="#ED23C3"/>
<circle cx="191" cy="114.5" r="6.5" fill="#1E0B37"/>
<path d="M190.5 111.004L190.5 -10" stroke="url(#paint0_linear_1081_8)" stroke-width="3" stroke-linecap="round"/>
<defs>
<linearGradient id="paint0_linear_1081_8" x1="191" y1="-10" x2="191" y2="111.004" gradientUnits="userSpaceOnUse">
<stop offset="0.167854" stop-color="#1F0B37"/>
<stop offset="1" stop-color="white"/>
</linearGradient>
</defs>
</svg>
